<mxfile host="app.diagrams.net" modified="2024-01-09T13:41:18.902Z" agent="Mozilla/5.0 (X11; Linux x86_64) AppleWebKit/537.36 (KHTML, like Gecko) Chrome/120.0.0.0 Safari/537.36" etag="VrgAV99UlBPjowdzSWoR" version="22.1.17" type="device">
  <diagram name="Página-1" id="m--tYJwbl52D1DkvceZG">
    <mxGraphModel dx="1687" dy="908" grid="1" gridSize="10" guides="1" tooltips="1" connect="1" arrows="1" fold="1" page="1" pageScale="1" pageWidth="2339" pageHeight="3300" math="0" shadow="0">
      <root>
        <mxCell id="0" />
        <mxCell id="1" parent="0" />
        <mxCell id="eGHGb31M43Qb2HRK5WX4-1" value="&lt;font style=&quot;font-size: 14px;&quot;&gt;Graduação e Colégio:&amp;nbsp;&lt;b style=&quot;border-color: var(--border-color);&quot;&gt;Educacional.dbo.Pessoa&lt;/b&gt;&lt;br&gt;&lt;br&gt;Pós: &lt;b&gt;WebAdm..pos_inscricao_new&lt;br&gt;&lt;/b&gt;&lt;br&gt;Pós (PJ):&lt;b&gt; WebAdm..PI_InscricaoProcessoPessoaJuridica&lt;br&gt;&lt;/b&gt;&lt;br&gt;Shift: &lt;b&gt;Shift..Aluno&lt;/b&gt;&lt;br&gt;&lt;/font&gt;" style="text;html=1;align=center;verticalAlign=middle;resizable=0;points=[];autosize=1;strokeColor=none;fillColor=none;strokeWidth=13;" vertex="1" parent="1">
          <mxGeometry x="35" y="30" width="400" height="130" as="geometry" />
        </mxCell>
        <mxCell id="eGHGb31M43Qb2HRK5WX4-2" value="&lt;font style=&quot;font-size: 14px;&quot;&gt;&lt;b&gt;UPDATE&lt;/b&gt;&lt;/font&gt;" style="text;html=1;align=center;verticalAlign=middle;resizable=0;points=[];autosize=1;strokeColor=none;fillColor=none;" vertex="1" parent="1">
          <mxGeometry x="283" y="186.38" width="80" height="30" as="geometry" />
        </mxCell>
        <mxCell id="eGHGb31M43Qb2HRK5WX4-3" value="" style="endArrow=classic;html=1;rounded=0;entryX=0.959;entryY=1.043;entryDx=0;entryDy=0;entryPerimeter=0;" edge="1" parent="1">
          <mxGeometry width="50" height="50" relative="1" as="geometry">
            <mxPoint x="280.5" y="218.41999999999996" as="sourcePoint" />
            <mxPoint x="379.5799999999999" y="217.66999999999996" as="targetPoint" />
          </mxGeometry>
        </mxCell>
        <mxCell id="eGHGb31M43Qb2HRK5WX4-4" value="" style="group;fillColor=default;" vertex="1" connectable="0" parent="1">
          <mxGeometry x="197.5" y="160" width="75" height="104.12000000000006" as="geometry" />
        </mxCell>
        <mxCell id="eGHGb31M43Qb2HRK5WX4-5" value="" style="shape=cylinder3;whiteSpace=wrap;html=1;boundedLbl=1;backgroundOutline=1;size=15;fillColor=default;" vertex="1" parent="eGHGb31M43Qb2HRK5WX4-4">
          <mxGeometry y="42.125" width="75" height="48.125" as="geometry" />
        </mxCell>
        <mxCell id="eGHGb31M43Qb2HRK5WX4-6" value="" style="shape=cylinder3;whiteSpace=wrap;html=1;boundedLbl=1;backgroundOutline=1;size=15;fillColor=default;" vertex="1" parent="eGHGb31M43Qb2HRK5WX4-4">
          <mxGeometry y="24.0625" width="75" height="48.125" as="geometry" />
        </mxCell>
        <mxCell id="eGHGb31M43Qb2HRK5WX4-7" value="" style="shape=cylinder3;whiteSpace=wrap;html=1;boundedLbl=1;backgroundOutline=1;size=15;fillColor=default;" vertex="1" parent="eGHGb31M43Qb2HRK5WX4-4">
          <mxGeometry y="6" width="75" height="48.125" as="geometry" />
        </mxCell>
        <mxCell id="eGHGb31M43Qb2HRK5WX4-8" value="" style="ellipse;whiteSpace=wrap;html=1;fillColor=default;" vertex="1" parent="eGHGb31M43Qb2HRK5WX4-4">
          <mxGeometry x="60.875" y="56.741365740740775" width="5.625" height="4.90162037037037" as="geometry" />
        </mxCell>
        <mxCell id="eGHGb31M43Qb2HRK5WX4-9" value="" style="ellipse;whiteSpace=wrap;html=1;fillColor=default;" vertex="1" parent="eGHGb31M43Qb2HRK5WX4-4">
          <mxGeometry x="60.875" y="37.48094907407408" width="5.625" height="4.90162037037037" as="geometry" />
        </mxCell>
        <mxCell id="eGHGb31M43Qb2HRK5WX4-10" value="" style="ellipse;whiteSpace=wrap;html=1;fillColor=default;" vertex="1" parent="1">
          <mxGeometry x="258.20833333333337" y="234.80386574074078" width="5.625" height="4.90162037037037" as="geometry" />
        </mxCell>
        <mxCell id="eGHGb31M43Qb2HRK5WX4-11" style="edgeStyle=orthogonalEdgeStyle;rounded=0;orthogonalLoop=1;jettySize=auto;html=1;fontFamily=Helvetica;fontSize=16;fontColor=default;startSize=30;" edge="1" parent="1" source="eGHGb31M43Qb2HRK5WX4-12">
          <mxGeometry relative="1" as="geometry">
            <mxPoint x="190" y="213.78500000000008" as="targetPoint" />
          </mxGeometry>
        </mxCell>
        <mxCell id="eGHGb31M43Qb2HRK5WX4-12" value="" style="ellipse;whiteSpace=wrap;html=1;aspect=fixed;strokeColor=#82b366;align=center;verticalAlign=middle;fontFamily=Helvetica;fontSize=16;startSize=30;fillColor=#d5e8d4;" vertex="1" parent="1">
          <mxGeometry x="100" y="192.76999999999998" width="42.03" height="42.03" as="geometry" />
        </mxCell>
        <mxCell id="eGHGb31M43Qb2HRK5WX4-14" value="Importa alterações para a NetSuite" style="whiteSpace=wrap;html=1;strokeColor=default;align=center;verticalAlign=middle;fontFamily=Helvetica;fontSize=16;fontColor=default;startSize=30;fillColor=default;" vertex="1" parent="1">
          <mxGeometry x="380" y="178.78" width="228" height="70" as="geometry" />
        </mxCell>
        <mxCell id="eGHGb31M43Qb2HRK5WX4-15" style="edgeStyle=orthogonalEdgeStyle;rounded=0;orthogonalLoop=1;jettySize=auto;html=1;exitX=1;exitY=0.5;exitDx=0;exitDy=0;entryX=0;entryY=0.5;entryDx=0;entryDy=0;" edge="1" parent="1" target="eGHGb31M43Qb2HRK5WX4-16">
          <mxGeometry relative="1" as="geometry">
            <mxPoint x="608" y="211.65" as="sourcePoint" />
          </mxGeometry>
        </mxCell>
        <mxCell id="eGHGb31M43Qb2HRK5WX4-16" value="" style="ellipse;whiteSpace=wrap;html=1;aspect=fixed;strokeColor=#ae4132;align=center;verticalAlign=middle;fontFamily=Helvetica;fontSize=16;startSize=30;fillColor=#fad9d5;" vertex="1" parent="1">
          <mxGeometry x="638" y="191.05" width="42.03" height="42.03" as="geometry" />
        </mxCell>
        <mxCell id="eGHGb31M43Qb2HRK5WX4-17" value="&lt;font style=&quot;font-size: 14px;&quot;&gt;&lt;b&gt;Educacional.dbo.Pessoa&lt;/b&gt;&lt;br&gt;&lt;/font&gt;" style="text;html=1;align=center;verticalAlign=middle;resizable=0;points=[];autosize=1;strokeColor=none;fillColor=none;strokeWidth=13;" vertex="1" parent="1">
          <mxGeometry x="135" y="360" width="190" height="30" as="geometry" />
        </mxCell>
        <mxCell id="eGHGb31M43Qb2HRK5WX4-18" value="&lt;font style=&quot;font-size: 14px;&quot;&gt;&lt;b&gt;INSERT&lt;/b&gt;&lt;/font&gt;" style="text;html=1;align=center;verticalAlign=middle;resizable=0;points=[];autosize=1;strokeColor=none;fillColor=none;" vertex="1" parent="1">
          <mxGeometry x="283" y="416.38" width="70" height="30" as="geometry" />
        </mxCell>
        <mxCell id="eGHGb31M43Qb2HRK5WX4-19" value="" style="endArrow=classic;html=1;rounded=0;entryX=0.959;entryY=1.043;entryDx=0;entryDy=0;entryPerimeter=0;" edge="1" parent="1">
          <mxGeometry width="50" height="50" relative="1" as="geometry">
            <mxPoint x="275.5" y="448.41999999999996" as="sourcePoint" />
            <mxPoint x="374.5799999999999" y="447.66999999999996" as="targetPoint" />
          </mxGeometry>
        </mxCell>
        <mxCell id="eGHGb31M43Qb2HRK5WX4-20" value="" style="group;fillColor=default;" vertex="1" connectable="0" parent="1">
          <mxGeometry x="192.5" y="390" width="75" height="104.12000000000006" as="geometry" />
        </mxCell>
        <mxCell id="eGHGb31M43Qb2HRK5WX4-21" value="" style="shape=cylinder3;whiteSpace=wrap;html=1;boundedLbl=1;backgroundOutline=1;size=15;fillColor=default;" vertex="1" parent="eGHGb31M43Qb2HRK5WX4-20">
          <mxGeometry y="42.125" width="75" height="48.125" as="geometry" />
        </mxCell>
        <mxCell id="eGHGb31M43Qb2HRK5WX4-22" value="" style="shape=cylinder3;whiteSpace=wrap;html=1;boundedLbl=1;backgroundOutline=1;size=15;fillColor=default;" vertex="1" parent="eGHGb31M43Qb2HRK5WX4-20">
          <mxGeometry y="24.0625" width="75" height="48.125" as="geometry" />
        </mxCell>
        <mxCell id="eGHGb31M43Qb2HRK5WX4-23" value="" style="shape=cylinder3;whiteSpace=wrap;html=1;boundedLbl=1;backgroundOutline=1;size=15;fillColor=default;" vertex="1" parent="eGHGb31M43Qb2HRK5WX4-20">
          <mxGeometry y="6" width="75" height="48.125" as="geometry" />
        </mxCell>
        <mxCell id="eGHGb31M43Qb2HRK5WX4-24" value="" style="ellipse;whiteSpace=wrap;html=1;fillColor=default;" vertex="1" parent="eGHGb31M43Qb2HRK5WX4-20">
          <mxGeometry x="60.875" y="56.741365740740775" width="5.625" height="4.90162037037037" as="geometry" />
        </mxCell>
        <mxCell id="eGHGb31M43Qb2HRK5WX4-25" value="" style="ellipse;whiteSpace=wrap;html=1;fillColor=default;" vertex="1" parent="eGHGb31M43Qb2HRK5WX4-20">
          <mxGeometry x="60.875" y="37.48094907407408" width="5.625" height="4.90162037037037" as="geometry" />
        </mxCell>
        <mxCell id="eGHGb31M43Qb2HRK5WX4-26" value="" style="ellipse;whiteSpace=wrap;html=1;fillColor=default;" vertex="1" parent="1">
          <mxGeometry x="253.20833333333337" y="464.8038657407408" width="5.625" height="4.90162037037037" as="geometry" />
        </mxCell>
        <mxCell id="eGHGb31M43Qb2HRK5WX4-27" style="edgeStyle=orthogonalEdgeStyle;rounded=0;orthogonalLoop=1;jettySize=auto;html=1;fontFamily=Helvetica;fontSize=16;fontColor=default;startSize=30;" edge="1" parent="1" source="eGHGb31M43Qb2HRK5WX4-28">
          <mxGeometry relative="1" as="geometry">
            <mxPoint x="185" y="443.7850000000001" as="targetPoint" />
          </mxGeometry>
        </mxCell>
        <mxCell id="eGHGb31M43Qb2HRK5WX4-28" value="" style="ellipse;whiteSpace=wrap;html=1;aspect=fixed;strokeColor=#82b366;align=center;verticalAlign=middle;fontFamily=Helvetica;fontSize=16;startSize=30;fillColor=#d5e8d4;" vertex="1" parent="1">
          <mxGeometry x="95" y="422.77" width="42.03" height="42.03" as="geometry" />
        </mxCell>
        <mxCell id="eGHGb31M43Qb2HRK5WX4-33" style="edgeStyle=orthogonalEdgeStyle;rounded=0;orthogonalLoop=1;jettySize=auto;html=1;exitX=1;exitY=0.5;exitDx=0;exitDy=0;entryX=0;entryY=0.5;entryDx=0;entryDy=0;" edge="1" parent="1" source="eGHGb31M43Qb2HRK5WX4-29" target="eGHGb31M43Qb2HRK5WX4-32">
          <mxGeometry relative="1" as="geometry" />
        </mxCell>
        <mxCell id="eGHGb31M43Qb2HRK5WX4-29" value="Obtém os dados anteriores do cliente &lt;br&gt;&lt;br&gt;(último registro com StatusRegistro = 0)" style="whiteSpace=wrap;html=1;strokeColor=default;align=center;verticalAlign=middle;fontFamily=Helvetica;fontSize=16;fontColor=default;startSize=30;fillColor=default;" vertex="1" parent="1">
          <mxGeometry x="375" y="395" width="295" height="106.22" as="geometry" />
        </mxCell>
        <mxCell id="eGHGb31M43Qb2HRK5WX4-37" style="edgeStyle=orthogonalEdgeStyle;rounded=0;orthogonalLoop=1;jettySize=auto;html=1;exitX=1;exitY=0.5;exitDx=0;exitDy=0;entryX=0;entryY=0.5;entryDx=0;entryDy=0;" edge="1" parent="1" source="eGHGb31M43Qb2HRK5WX4-32" target="eGHGb31M43Qb2HRK5WX4-34">
          <mxGeometry relative="1" as="geometry" />
        </mxCell>
        <mxCell id="eGHGb31M43Qb2HRK5WX4-32" value="Verifica os dados que foram alterados" style="whiteSpace=wrap;html=1;strokeColor=default;align=center;verticalAlign=middle;fontFamily=Helvetica;fontSize=16;fontColor=default;startSize=30;fillColor=default;" vertex="1" parent="1">
          <mxGeometry x="720" y="413.11" width="228" height="70" as="geometry" />
        </mxCell>
        <mxCell id="eGHGb31M43Qb2HRK5WX4-34" value="Importa alterações para a NetSuite" style="whiteSpace=wrap;html=1;strokeColor=default;align=center;verticalAlign=middle;fontFamily=Helvetica;fontSize=16;fontColor=default;startSize=30;fillColor=default;" vertex="1" parent="1">
          <mxGeometry x="1000" y="413.11" width="228" height="70" as="geometry" />
        </mxCell>
        <mxCell id="eGHGb31M43Qb2HRK5WX4-35" style="edgeStyle=orthogonalEdgeStyle;rounded=0;orthogonalLoop=1;jettySize=auto;html=1;exitX=1;exitY=0.5;exitDx=0;exitDy=0;entryX=0;entryY=0.5;entryDx=0;entryDy=0;" edge="1" parent="1" target="eGHGb31M43Qb2HRK5WX4-36" source="eGHGb31M43Qb2HRK5WX4-34">
          <mxGeometry relative="1" as="geometry">
            <mxPoint x="1238" y="445.98" as="sourcePoint" />
          </mxGeometry>
        </mxCell>
        <mxCell id="eGHGb31M43Qb2HRK5WX4-36" value="" style="ellipse;whiteSpace=wrap;html=1;aspect=fixed;strokeColor=#ae4132;align=center;verticalAlign=middle;fontFamily=Helvetica;fontSize=16;startSize=30;fillColor=#fad9d5;" vertex="1" parent="1">
          <mxGeometry x="1280" y="427.09000000000003" width="42.03" height="42.03" as="geometry" />
        </mxCell>
      </root>
    </mxGraphModel>
  </diagram>
</mxfile>
